<svg width="133" height="150" viewBox="0 0 133 150" fill="none" xmlns="http://www.w3.org/2000/svg">
<path fill-rule="evenodd" clip-rule="evenodd" d="M40.032 29.2747C40.0347 27.196 40.264 25.0347 40.8187 22.8493C42.8493 14.8547 49.0653 6.25466 65.0267 0.763998C65.464 0.613331 66.424 -0.00400359 66.424 -0.00400359L67.8227 0.763998C83.7827 6.25466 89.8213 14.804 92.0293 22.8493C92.5867 24.876 92.844 26.8907 92.8893 28.84C94.6907 27.804 96.6773 26.9213 98.848 26.3093C106.785 24.0707 117.343 25.1533 130.079 36.2307C130.428 36.5347 131.579 37.0907 131.579 37.0907L131.476 38.652C134.701 55.22 130.316 64.724 124.453 70.6587C122.976 72.1547 121.36 73.3853 119.695 74.3987C121.493 75.44 123.251 76.72 124.865 78.2933C130.773 84.048 135.113 93.732 131.889 110.3C131.8 110.755 131.863 111.928 131.863 111.928L130.491 112.721C117.755 123.798 107.332 124.753 99.26 122.643C97.3947 122.155 95.664 121.455 94.0693 120.62C93.9267 120.607 93.784 120.586 93.6413 120.559C93.6267 122.585 93.3947 124.691 92.8547 126.817C90.8253 134.81 84.608 143.412 68.648 148.903C68.2093 149.053 67.212 149.896 67.212 149.896L65.852 148.903C49.8907 143.412 43.852 134.863 41.644 126.817C41.088 124.791 40.8293 122.775 40.7853 120.827C38.984 121.863 36.996 122.745 34.8267 123.357C26.888 125.596 16.3317 124.514 3.59587 113.436C3.24693 113.132 1.93173 112.767 1.93173 112.767L2.19733 111.015C-1.02654 94.4467 3.35733 84.9427 9.22133 79.008C10.2229 77.9933 11.288 77.1013 12.3907 76.316C12.6213 75.7973 12.9599 75.32 13.3984 74.9227C11.8041 73.9467 10.2495 72.7773 8.80787 71.3733C2.9016 65.6187 -1.44013 55.9347 1.78547 39.3667C1.87347 38.912 1.676 37.5587 1.676 37.5587L3.1828 36.9453C15.9188 25.868 26.3427 24.9133 34.4133 27.024C36.448 27.556 38.3213 28.3387 40.032 29.2747V29.2747ZM71.7213 99.8401C71.352 99.9136 70.98 99.9787 70.6053 100.035V123.921C70.6053 126.228 68.732 128.102 66.424 128.102C64.1173 128.102 62.244 126.228 62.244 123.921V99.9307C62.1613 99.9161 62.08 99.9016 61.9973 99.8864C59.3293 107.476 54.3307 110.428 54.3307 110.428C53.4547 110.99 52.4253 111.19 51.4427 111.039C51.1867 111.39 50.9053 111.761 50.5987 112.149C49.4733 115.4 48.5413 120.003 49.7493 124.759C51.232 130.597 56.084 136.384 67.2493 140.523C78.416 136.384 83.268 130.597 84.7507 124.759C85.9867 119.891 84.9813 115.181 83.82 111.92C83.456 111.465 83.1227 111.029 82.8227 110.619C81.6627 110.986 80.372 110.837 79.3067 110.155C79.3067 110.155 74.408 107.261 71.7213 99.8401V99.8401ZM23.5683 80.1307C20.7599 80.992 17.6521 82.468 15.0563 84.9973C10.7401 89.2013 8.15626 96.2959 10.1547 108.035C19.3213 115.636 26.7588 116.945 32.556 115.309C33.2893 115.103 36.1667 113.668 36.8947 113.075C39.628 110.845 41.24 107.879 41.0507 104.872C40.936 103.065 40.2333 101.321 38.7827 100.257C37.072 99.0041 34.536 98.8104 31.2145 99.8079L25.8453 102.907C23.8479 104.06 21.288 103.375 20.1349 101.376C18.9812 99.3787 19.6667 96.8188 21.6651 95.6651L27.0333 92.5653C29.5563 90.188 30.6588 87.8947 30.4281 85.7853C30.2317 83.9987 29.0735 82.5173 27.5651 81.5147C26.4041 80.7427 25.0136 80.244 23.5683 80.1307V80.1307ZM119.031 84.2827C118.216 83.488 115.251 81.5867 114.496 81.276C110.119 79.48 107.792 79.848 105.284 81.5147C104.613 81.9613 103.948 82.4467 103.532 83.1213C103.051 83.904 102.585 85.1307 102.393 86.212C102.017 88.3267 103.461 90.3467 105.816 92.5653L111.184 95.6651C113.183 96.8188 113.868 99.3787 112.715 101.376C111.56 103.375 109.001 104.06 107.003 102.907L101.635 99.8079C98.368 98.8281 95.86 98.9973 94.1507 100.197C93.4787 100.76 92.9213 101.4 92.504 102.135C92.0867 102.968 91.8587 103.91 91.7987 104.872C91.7027 106.398 92.028 107.998 92.7893 109.402C94.9707 111.492 97.8947 113.569 101.531 114.595C107.328 116.231 114.765 114.921 123.932 107.32C125.931 95.5812 123.347 88.4867 119.031 84.2827V84.2827ZM54.388 81.964C46.4787 74.8533 39.9293 74.188 36.3947 74.5587C38.5653 85.1707 43.688 94.0773 51.8027 101.256C53.8907 98.3812 56.5933 92.3747 54.388 81.964ZM95.896 79.5267C96.4333 77.828 96.884 76.0813 97.2493 74.2853C93.716 73.9147 87.1627 74.576 79.2493 81.6907C77.0453 92.096 79.7453 98.1016 81.832 100.977C83.2293 99.7385 84.5387 98.4495 85.7613 97.1079C86.6533 96.2401 87.4267 95.3067 88.0973 94.348C90.5947 91.16 92.6413 87.712 94.2347 84.0027C94.8413 82.592 95.4387 81.1 95.896 79.5267V79.5267ZM79.7813 63.2707C76.724 65.3 72.8493 67.1653 67.9387 68.636C67.5493 68.752 67.1453 68.8107 66.74 68.8107H66.424C66.0187 68.8107 65.6147 68.752 65.2253 68.636C60.4213 67.1973 56.6093 65.38 53.5853 63.4027C52.1773 65.0467 51.0733 66.956 50.3573 69.044C53.6427 70.676 57.2 73.1 60.9307 76.6213C61.2267 76.9 61.4787 77.22 61.6827 77.5707L61.84 77.844C62.0427 78.196 62.1933 78.5747 62.2867 78.9707C63.4453 83.852 63.7773 88.064 63.576 91.6747C64.6027 91.864 65.66 91.9627 66.74 91.9627C67.8813 91.9627 68.996 91.8533 70.076 91.6413C69.8467 87.9813 70.1667 83.6893 71.3507 78.6973C71.444 78.3013 71.5947 77.9227 71.7973 77.5707L71.956 77.2973C72.1587 76.9467 72.412 76.6267 72.7067 76.348C76.356 72.904 79.8373 70.5107 83.0653 68.8787C82.328 66.7987 81.204 64.9 79.7813 63.2707V63.2707ZM42.64 42.1133C40.388 39.512 36.8667 36.404 32.1437 35.072C26.3469 33.436 18.9093 34.7453 9.74267 42.3467C7.74373 54.0853 10.3281 61.18 14.6427 65.384C18.2412 68.8893 22.8229 70.372 26.2265 70.9973C26.6735 70.9293 27.1016 70.872 27.5052 70.824C27.7145 69.5413 28.5145 68.4013 29.7093 67.7827C29.7093 67.7827 34.6627 64.988 42.4333 66.3707C42.504 66.164 42.5773 65.9587 42.6533 65.7547L21.6651 53.6373C19.6667 52.4827 18.9812 49.924 20.1349 47.9253C21.288 45.928 23.8479 45.2413 25.8453 46.396L46.7947 58.4907C46.948 58.3027 47.104 58.116 47.2613 57.932C42.0187 51.8253 41.96 46.016 41.96 46.016C41.9093 44.8973 42.308 43.836 43.0213 43.0373C42.896 42.744 42.768 42.436 42.64 42.1133V42.1133ZM107.272 70.2373C110.651 69.588 115.104 68.0933 118.619 64.6693C122.933 60.4653 125.519 53.3707 123.519 41.632C114.352 34.0307 106.916 32.7213 101.117 34.3573C96.2827 35.72 92.708 38.9453 90.464 41.5827C90.292 42.0253 90.1187 42.444 89.9493 42.836C90.784 43.652 91.26 44.8013 91.204 46.016C91.204 46.016 91.1467 51.7093 86.0587 57.748C86.2013 57.9107 86.3427 58.076 86.4813 58.244L107.003 46.396C109.001 45.2413 111.56 45.928 112.715 47.9253C113.868 49.924 113.183 52.4827 111.184 53.6373L90.7147 65.4547C90.8013 65.6827 90.8853 65.9107 90.9667 66.1413C98.872 64.656 103.928 67.5093 103.928 67.5093C104.975 68.0507 105.717 68.992 106.027 70.0773C106.417 70.1213 106.833 70.1747 107.272 70.2373V70.2373ZM81.9933 48.4173C71.7173 44.9907 61.4427 44.9733 51.168 48.412C52.6147 51.6573 56.464 57.0027 66.5827 60.2973C76.6947 57.004 80.5467 51.6627 81.9933 48.4173V48.4173ZM84.48 28.856C84.4347 27.5693 84.2653 26.244 83.9253 24.9067C82.4427 19.068 77.5907 13.2827 66.424 9.14399C55.2587 13.2827 50.4067 19.068 48.924 24.9067C48.584 26.244 48.4133 27.5693 48.3693 28.856C48.416 29.1667 48.428 29.488 48.4013 29.8147C48.384 30.0227 48.376 30.2293 48.376 30.4347C48.3907 30.7773 48.412 31.116 48.4427 31.4507C48.812 34.2173 50.6733 36.4413 52.94 37.5667C54.5613 38.3707 56.424 38.6347 58.0693 37.9093C60.0107 37.0547 61.4453 34.9547 62.244 31.58V25.3813C62.244 23.0733 64.1173 21.2 66.424 21.2C68.732 21.2 70.6053 23.0733 70.6053 25.3813V31.58C71.404 34.9547 72.8387 37.0547 74.78 37.9093C76.4253 38.6347 78.288 38.3707 79.9093 37.5667C82.176 36.4413 84.0373 34.2173 84.4067 31.4507C84.436 31.116 84.4587 30.7773 84.4733 30.4347C84.4733 30.2293 84.4653 30.0227 84.448 29.8147C84.4213 29.488 84.4333 29.1667 84.48 28.856" fill="url(#paint0_linear)"/>
<defs>
<linearGradient id="paint0_linear" x1="0.686665" y1="74.9453" x2="132.987" y2="74.9453" gradientUnits="userSpaceOnUse">
<stop stop-color="#FF3E89"/>
<stop offset="1" stop-color="#00C2CB"/>
</linearGradient>
</defs>
</svg>
